#!OML:ASF F:\VICON\USERDATA\INSTALL\rory3\rory3.ASF
:FULLY-SPECIFIED
:DEGREES
450
root 1.41861 16.6042 28.3706 34.3938 7.90583 -1.46266
lowerback -16.3549 -2.37028 3.67213
upperback -13.0388 -3.46106 4.04366
thorax -4.80228 -1.83218 1.82483
lowerneck -7.90944 -0.0992031 -1.26721
upperneck 44.4903 0.266429 -0.433168
head 17.869 -0.16044 0.0729603
rclavicle -4.57702e-014 1.19271e-014
rhumerus -15.3747 -22.995 -3.02673
rradius 21.8045
rwrist 12.6226
rhand 21.5556 5.03037
rfingers 7.12502
rthumb 45.9814 -18.0719
lclavicle -4.57702e-014 1.19271e-014
lhumerus 54.9239 6.93019 0.200251
lradius 41.3689
lwrist -11.9755
lhand 19.4824 12.0446
lfingers 7.12502
lthumb 44.0526 35.9079
rfemur -56.7637 1.80292 32.91
rtibia 40.0629
rfoot -46.7203 -33.3631
rtoes 39.7376
lfemur -12.2891 -5.08669 -22.5969
ltibia 28.8936
lfoot -14.7958 45.4053
ltoes 48.4935
451
root 1.40984 16.5988 28.3738 34.5733 7.55694 -1.16401
lowerback -16.8128 -2.37903 3.07472
upperback -12.9116 -3.43459 3.9714
thorax -4.38444 -1.77747 2.05371
lowerneck -8.03102 -0.111293 -1.40944
upperneck 44.4994 0.177038 -0.170998
head 17.9066 -0.185941 0.20757
rclavicle -6.67171e-015 -1.43125e-014
rhumerus -15.5116 -24.0703 -2.81321
rradius 21.5539
rwrist 13.5307
rhand 21.576 5.72811
rfingers 7.12502
rthumb 46.0004 -17.3663
lclavicle -6.67171e-015 -1.43125e-014
lhumerus 55.1855 6.93395 0.0174826
lradius 41.4172
lwrist -12.567
lhand 19.5621 11.8323
lfingers 7.12502
lthumb 44.1269 35.6676
rfemur -56.9865 2.98874 31.7559
rtibia 40.045
rfoot -47.6009 -34.2861
rtoes 40.1476
lfemur -12.4489 -4.94072 -23.0628
ltibia 28.9295
lfoot -14.8269 45.3726
ltoes 48.3979
452
root 1.40978 16.6 28.3717 34.5456 7.59681 -1.21322
lowerback -16.9144 -2.35949 3.11077
upperback -12.8678 -3.41923 3.99316
thorax -4.28437 -1.77025 2.0517
lowerneck -7.92493 -0.106475 -1.50238
upperneck 44.393 0.162966 -0.0639119
head 17.8125 -0.191641 0.272645
rclavicle -2.87865e-014 3.18055e-015
rhumerus -15.6328 -24.6334 -2.64345
rradius 21.3822
rwrist 14.0473
rhand 21.4396 6.20125
rfingers 7.12502
rthumb 45.8738 -16.9457
lclavicle -2.87865e-014 3.18055e-015
lhumerus 55.4749 6.7939 -0.0406529
lradius 41.3625
lwrist -13.2041
lhand 19.8456 11.7267
lfingers 7.12502
lthumb 44.3912 35.4621
rfemur -56.9608 3.38967 31.5459
rtibia 40.0105
rfoot -48.0157 -34.5161
rtoes 40.5886
lfemur -12.4422 -4.82163 -23.0273
ltibia 28.964
lfoot -13.6505 45.4498
ltoes 48.1005
453
root 1.409 16.5995 28.3653 34.5491 7.59229 -1.14915
lowerback -16.8955 -2.37929 3.00327
upperback -12.8829 -3.43015 4.01133
thorax -4.30248 -1.76768 2.13089
lowerneck -7.9321 -0.116811 -1.54795
upperneck 44.3903 0.176079 -0.101454
head 17.813 -0.198437 0.265695
rclavicle -8.15017e-015 -2.94201e-014
rhumerus -15.7848 -23.707 -2.6819
rradius 21.5739
rwrist 13.0308
rhand 21.161 5.86985
rfingers 7.12502
rthumb 45.6151 -17.3833
lclavicle -8.15017e-015 -2.94201e-014
lhumerus 55.5873 6.60529 -0.213648
lradius 41.4362
lwrist -13.7341
lhand 20.1207 11.8318
lfingers 7.12502
lthumb 44.6475 35.4689
rfemur -56.9857 3.43943 31.4396
rtibia 40.0138
rfoot -48.1807 -34.3486
rtoes 41.0908
lfemur -12.3979 -4.86779 -23.1233
ltibia 28.9469
lfoot -14.7228 45.0386
ltoes 48.323
454
root 1.40857 16.5981 28.3613 34.6027 7.65144 -1.15625
lowerback -16.9674 -2.35238 3.01349
upperback -12.9396 -3.39551 3.99943
thorax -4.33054 -1.75096 2.1166
lowerneck -7.98005 -0.146892 -1.63101
upperneck 44.5348 0.112463 -0.00175406
head 17.9155 -0.225312 0.317716
rclavicle -5.438e-014 1.27222e-014
rhumerus -16.1329 -22.1504 -2.70853
rradius 21.9947
rwrist 11.4927
rhand 21.0703 5.1854
rfingers 7.12502
rthumb 45.5308 -18.102
lclavicle -5.438e-014 1.27222e-014
lhumerus 55.631 6.20695 -0.947046
lradius 41.7748
lwrist -13.7537
lhand 20.0915 11.9738
lfingers 7.12502
lthumb 44.6203 35.6213
rfemur -57.0669 3.59167 31.3434
rtibia 39.989
rfoot -48.2646 -34.4465
rtoes 41.5974
lfemur -12.4239 -4.78227 -23.1232
ltibia 28.9473
lfoot -16.6752 44.4466
ltoes 48.9713
455
root 1.40848 16.5962 28.3574 34.6219 7.76003 -1.19617
lowerback -17.0786 -2.32789 3.0647
upperback -12.9669 -3.37144 4.03219
thorax -4.30548 -1.74 2.12231
lowerneck -7.90522 -0.187704 -1.84829
upperneck 44.6203 0.0437589 0.147154
head 17.9499 -0.269648 0.416769
rclavicle 2.59787e-014 -5.56597e-015
rhumerus -16.3363 -21.7636 -2.56835
rradius 22.1397
rwrist 11.1452
rhand 21.1677 4.75712
rfingers 7.12502
rthumb 45.6213 -18.4935
lclavicle 2.59787e-014 -5.56597e-015
lhumerus 55.7063 5.8437 -1.62238
lradius 41.9906
lwrist -13.7453
lhand 19.9873 12.0589
lfingers 7.12502
lthumb 44.5232 35.7438
rfemur -57.1076 3.61639 31.394
rtibia 39.9825
rfoot -48.2902 -34.4306
rtoes 41.9152
lfemur -12.3755 -4.69613 -23.0658
ltibia 28.8788
lfoot -18.452 43.7611
ltoes 49.4479
456
root 1.40959 16.5953 28.3546 34.6071 7.78986 -1.18903
lowerback -17.1403 -2.28949 3.0344
upperback -12.9957 -3.31712 4.02778
thorax -4.3049 -1.70983 2.14015
lowerneck -7.71914 -0.252278 -1.98896
upperneck 44.5911 -0.0608949 0.236664
head 17.8842 -0.322508 0.467657
rclavicle 2.51835e-014 -3.10104e-014
rhumerus -16.5643 -21.9339 -2.37661
rradius 22.2706
rwrist 11.4159
rhand 21.3503 4.58778
rfingers 7.12502
rthumb 45.7908 -18.5934
lclavicle 2.51835e-014 -3.10104e-014
lhumerus 56.0371 5.6438 -1.64812
lradius 41.9478
lwrist -14.3901
lhand 20.2542 11.8393
lfingers 7.12502
lthumb 44.7718 35.4282
rfemur -57.0938 3.70384 31.3293
rtibia 39.9327
rfoot -48.2824 -34.7411
rtoes 41.7091
lfemur -12.2595 -4.5541 -23.0991
ltibia 28.869
lfoot -21.2877 42.4214
ltoes 50.3222
457
root 1.41194 16.5986 28.3534 34.5929 7.75498 -1.11324
lowerback -16.9589 -2.28279 2.9787
upperback -13.1762 -3.28411 3.98725
thorax -4.59996 -1.69239 2.14963
lowerneck -7.50449 -0.239467 -1.99871
upperneck 44.6546 -0.0802906 0.321959
head 17.8664 -0.320713 0.506604
rclavicle -5.09945e-014 2.8625e-014
rhumerus -16.7781 -20.5247 -2.45268
rradius 22.6497
rwrist 10.4111
rhand 21.3698 4.32498
rfingers 7.12502
rthumb 45.8089 -18.8487
lclavicle -5.09945e-014 2.8625e-014
lhumerus 56.2194 5.21499 -1.73643
lradius 42.1031
lwrist -14.9323
lhand 20.5426 11.6993
lfingers 7.12502
lthumb 45.0402 35.183
rfemur -57.0346 3.83168 31.1127
rtibia 39.8486
rfoot -48.4563 -34.7464
rtoes 42.0696
lfemur -12.2144 -4.64695 -23.2433
ltibia 28.9178
lfoot -22.1137 42.0424
ltoes 50.542
458
root 1.41818 16.6062 28.3504 34.4875 8.06176 -1.38851
lowerback -16.7278 -2.2624 3.43454
upperback -13.2955 -3.29088 4.07684
thorax -4.87936 -1.72549 2.00781
lowerneck -7.38254 -0.20975 -2.01335
upperneck 44.6609 -0.0443881 0.348861
head 17.8372 -0.30462 0.527756
rclavicle 3.56259e-015 -2.38542e-015
rhumerus -16.9301 -19.58 -2.45988
rradius 22.9032
rwrist 9.75166
rhand 21.3937 4.58425
rfingers 7.12502
rthumb 45.8312 -18.5803
lclavicle 3.56259e-015 -2.38542e-015
lhumerus 56.2838 4.84091 -2.02566
lradius 42.3665
lwrist -15.1888
lhand 20.4325 11.5473
lfingers 7.12502
lthumb 44.9378 35.0713
rfemur -56.8465 3.50847 31.6645
rtibia 39.7622
rfoot -48.5243 -34.0843
rtoes 42.7797
lfemur -12.1856 -4.71991 -22.8751
ltibia 28.9671
lfoot -18.8633 43.1613
ltoes 49.5747
459
root 1.42829 16.612 28.3451 34.3682 8.49623 -1.69459
lowerback -16.641 -2.23261 4.01889
upperback -13.2982 -3.31093 4.1566
thorax -4.96387 -1.77414 1.77088
lowerneck -7.36827 -0.188453 -1.91573
upperneck 44.6493 0.0107275 0.243913
head 17.8252 -0.278296 0.469818
rclavicle 1.27874e-014 -1.03368e-014
rhumerus -16.9404 -20.3085 -2.28426
rradius 22.5721
rwrist 10.4418
rhand 21.2795 5.16077
rfingers 7.12502
rthumb 45.7251 -18.0474
lclavicle 1.27874e-014 -1.03368e-014
lhumerus 56.389 4.68632 -2.27707
lradius 42.6458
lwrist -15.5132
lhand 20.4219 11.3646
lfingers 7.12502
lthumb 44.9279 34.8925
rfemur -56.6767 2.73944 32.5484
rtibia 39.7069
rfoot -48.1427 -33.4449
rtoes 42.8418
lfemur -12.123 -4.80648 -22.42
ltibia 29.0052
lfoot -16.6246 43.5765
ltoes 48.8639
460
root 1.43086 16.6115 28.3366 34.3338 8.5123 -1.53683
lowerback -16.5524 -2.27933 3.88707
upperback -13.322 -3.35132 4.12353
thorax -5.02912 -1.7872 1.80938
lowerneck -7.31314 -0.124974 -1.80056
upperneck 44.6245 0.102794 0.192707
head 17.7934 -0.226979 0.439675
rclavicle 3.07215e-014 -1.90833e-014
rhumerus -16.8885 -20.6786 -2.21829
rradius 22.2883
rwrist 10.7067
rhand 21.2407 5.20123
rfingers 7.12502
rthumb 45.6891 -18.0216
lclavicle 3.07215e-014 -1.90833e-014
lhumerus 56.4207 4.46757 -2.92336
lradius 42.9584
lwrist -15.5515
lhand 20.3092 11.3648
lfingers 7.12502
lthumb 44.823 34.9338
rfemur -56.665 2.52356 32.4767
rtibia 39.7031
rfoot -47.9729 -33.3277
rtoes 42.7823
lfemur -12.0531 -4.74079 -22.619
ltibia 29.0384
lfoot -17.5617 43.0374
ltoes 49.2463
461
root 1.42894 16.6106 28.3302 34.3649 8.42588 -1.28446
lowerback -16.5093 -2.34686 3.56195
upperback -13.3818 -3.39862 4.09105
thorax -5.09725 -1.78969 1.95456
lowerneck -7.23034 -0.0570631 -1.71495
upperneck 44.5802 0.215555 0.125768
head 17.7426 -0.174034 0.410773
rclavicle 6.45068e-014 3.18055e-015
rhumerus -16.876 -20.9003 -2.09299
rradius 22.0499
rwrist 11.024
rhand 21.3174 5.42082
rfingers 7.12502
rthumb 45.7603 -17.7729
lclavicle 6.45068e-014 3.18055e-015
lhumerus 56.4476 4.16372 -3.68445
lradius 43.1848
lwrist -15.3945
lhand 20.2947 11.5358
lfingers 7.12502
lthumb 44.8095 35.11
rfemur -56.7473 2.95088 31.8449
rtibia 39.7259
rfoot -48.5604 -33.4729
rtoes 43.3155
lfemur -12.0113 -4.79314 -22.9326
ltibia 29.0281
lfoot -18.9399 42.4534
ltoes 49.5326
462
root 1.4266 16.6101 28.3266 34.3789 8.49015 -1.18144
lowerback -16.4913 -2.40839 3.42329
upperback -13.4377 -3.45939 4.11473
thorax -5.15778 -1.8095 2.05339
lowerneck -7.16783 -0.0334181 -1.71393
upperneck 44.5374 0.270073 0.0826741
head 17.6993 -0.156297 0.399093
rclavicle -2.41578e-014 -2.06736e-014
rhumerus -16.8689 -21.5977 -1.93001
rradius 21.8194
rwrist 11.8588
rhand 21.3168 5.87232
rfingers 7.12502
rthumb 45.7598 -17.3216
lclavicle -2.41578e-014 -2.06736e-014
lhumerus 56.4855 3.83035 -4.41608
lradius 43.4454
lwrist -15.4301
lhand 20.2289 11.5925
lfingers 7.12502
lthumb 44.7483 35.1905
rfemur -56.8238 3.25032 31.5127
rtibia 39.7859
rfoot -48.9675 -33.7202
rtoes 43.4389
lfemur -11.9557 -4.74558 -23.0111
ltibia 28.945
lfoot -20.681 41.7234
ltoes 50.0506
